<svg xmlns="http://www.w3.org/2000/svg" viewBox="0 0 815.08 593.83"><defs><style>.cls-1,.cls-2{fill:#ffc7da;}.cls-2,.cls-3{stroke:#000;stroke-miterlimit:10;}.cls-2{stroke-width:6px;}.cls-3,.cls-5{fill:#fff;}.cls-3{stroke-width:3px;}.cls-4{fill:red;}</style></defs><g id="Layer_2" data-name="Layer 2"><g id="Layer_1-2" data-name="Layer 1"><path class="cls-1" d="M693.26,454.23c-81.36,0-100.08-17.78-123.79-40.29-3.86-3.66-7.84-7.43-12.25-11.28A6.16,6.16,0,0,1,552,397a3,3,0,0,1,3-3.21,3,3,0,0,1,1.91.69c.86.71,1.69,1.41,2.51,2.11,2.2-.49,7.12-2.78,17-12,6.37-5.91,11.95-9.57,20.1-9.57,9.34,0,21.48,4.63,45.15,15,3.24,1.42,8.44,4,15,7.33,14.7,7.39,34.83,17.5,47.68,21.55a51.89,51.89,0,0,0,15.27,2.75A20.7,20.7,0,0,0,730,419.33l.51-.25c.89-.43,1.42-2.72.74-5.67-.9-3.93-4.6-10.58-12.73-10.58-2.56,0-3.16.59-3.17.59-.52,1.26,2.73,6.73,7.29,11.29a3,3,0,0,1-2.12,5.12c-18.3,0-29.24-10.47-29.24-20.59,0-8,7.14-17.41,27.24-17.41,20.81,0,41.56,20.15,41.91,40.69A25.86,25.86,0,0,1,750,444c-7.74,6-19.31,9.31-34.39,9.82C707.78,454.09,700.26,454.23,693.26,454.23Z"/><path d="M596.56,378.06c8.83,0,21.11,4.75,43.94,14.77,10.48,4.61,44.23,23.08,63,29a54.09,54.09,0,0,0,16.17,2.89,24.14,24.14,0,0,0,12.13-2.94c6.3-3.06,1.7-21.95-13.3-21.95s2,17,2,17c-31,0-38-32-2-32s67,63.65-3,66c-7.91.27-15.3.4-22.24.4-94.14,0-102.76-23.77-134.81-51.48h0c3.1,0,9-2.63,20-12.92,6.21-5.76,11-8.77,18.06-8.77M555,396.83q1.77,1.47,3.45,2.92a3.23,3.23,0,0,1-3.45-2.92m41.56-24.77c-9.13,0-15.24,4-22.14,10.38-7.86,7.29-12.24,9.88-14.35,10.81l-1.25-1a6,6,0,0,0-3.82-1.38,5.9,5.9,0,0,0-2.74.67,6,6,0,0,0-3.25,5.75,9.2,9.2,0,0,0,6.81,8.17c4.14,3.63,7.92,7.22,11.58,10.7,11.79,11.19,22.93,21.76,41.46,29.27,19.92,8.08,46.74,11.84,84.4,11.84,7,0,14.58-.14,22.44-.4,15.73-.53,27.88-4.05,36.13-10.46a28.7,28.7,0,0,0,11.58-23.9c-.17-10.29-5.2-21.12-13.79-29.73-8.82-8.84-20.16-13.91-31.12-13.91-22.32,0-30.24,11-30.24,20.41a19.53,19.53,0,0,0,4.49,12.08c-11.23-4.8-24.31-11.37-34.68-16.58-6.61-3.32-11.84-5.94-15.16-7.4-24.07-10.57-36.47-15.28-46.35-15.28Zm129.89,45.57a6,6,0,0,0-1.71-5,40.58,40.58,0,0,1-5.37-6.72,9.43,9.43,0,0,1,7.39,4.56,10,10,0,0,1,1.73,6.29c-.59.29-1.25.61-2,.91Z"/><path class="cls-1" d="M70.15,454.23c-7,0-14.51-.14-22.34-.4C32.73,453.32,21.16,450,13.42,444A25.86,25.86,0,0,1,3,422.52c.35-20.54,21.11-40.69,41.91-40.69,8.49,0,15.26,1.66,20.1,4.93,4.61,3.11,7.14,7.54,7.14,12.48,0,10.12-10.94,20.59-29.24,20.59a3,3,0,0,1-2.12-5.12c4.69-4.69,7.82-10,7.28-11.3h0s-.62-.58-3.16-.58c-8.13,0-11.83,6.65-12.73,10.58-.68,2.95-.14,5.24.74,5.67l.51.25a20.77,20.77,0,0,0,10.31,2.39A51.89,51.89,0,0,0,59,419c12.85-4.05,33-14.16,47.68-21.54,6.57-3.31,11.77-5.92,15-7.34,23.67-10.4,35.8-15,45.14-15,8.16,0,13.74,3.66,20.11,9.57,9.92,9.22,14.84,11.51,17,12,.82-.7,1.66-1.4,2.51-2.11a3,3,0,0,1,4.91,2.52,6.17,6.17,0,0,1-5.22,5.62c-4.41,3.85-8.39,7.62-12.25,11.28C170.24,436.45,151.51,454.23,70.15,454.23Z"/><path d="M166.85,378.06c7,0,11.86,3,18.06,8.77,11.08,10.29,16.94,12.92,20,12.92h0c-32.05,27.71-40.67,51.48-134.81,51.48-6.93,0-14.33-.13-22.24-.4-70-2.35-39-66-3-66s29,32-2,32c0,0,17-17,2-17s-19.59,18.89-13.29,21.95a24.11,24.11,0,0,0,12.13,2.94,54,54,0,0,0,16.16-2.89c18.77-5.92,52.52-24.39,63-29,22.83-10,35.12-14.77,43.94-14.77m41.56,18.77a3.23,3.23,0,0,1-3.45,2.92q1.68-1.46,3.45-2.92m-41.56-24.77c-9.88,0-22.28,4.71-46.35,15.28-3.32,1.46-8.54,4.08-15.16,7.4C95,400,81.9,406.52,70.66,411.32a19.53,19.53,0,0,0,4.49-12.08c0-9.42-7.92-20.41-30.24-20.41-10.95,0-22.3,5.07-31.12,13.91C5.2,401.35.18,412.18,0,422.47a28.73,28.73,0,0,0,11.58,23.9c8.25,6.41,20.4,9.93,36.13,10.46,7.86.26,15.41.4,22.44.4,37.66,0,64.48-3.76,84.4-11.84,18.54-7.51,29.67-18.08,41.46-29.27,3.66-3.48,7.44-7.07,11.58-10.7a9.2,9.2,0,0,0,6.81-8.17,6,6,0,0,0-9.81-5l-1.24,1c-2.11-.93-6.5-3.52-14.35-10.81-6.9-6.41-13-10.38-22.15-10.38ZM34.93,416.72a9.94,9.94,0,0,1,1.72-6.29A9.43,9.43,0,0,1,44,405.87a40.58,40.58,0,0,1-5.37,6.72,6,6,0,0,0-1.7,5,20.58,20.58,0,0,1-2-.91Z"/><path class="cls-2" d="M174,411.25c-67.43,43.23-103.39,110.19-84.7,121.14S181,559.33,231,509.33s62.61-85.91,36-98C247.52,402.49,210,388.17,174,411.25Z"/><path class="cls-2" d="M277.94,445.5c-20.76,31.9-35.57,41.22-50,66.78s10.56,78.55,77.56,78.55,76-45.33,76-72.67,0-63.33-7-97.33S296.38,417.16,277.94,445.5Z"/><path class="cls-2" d="M588.91,411.25c67.43,43.23,103.39,110.19,84.69,121.14s-91.69,26.94-141.69-23.06-62.6-85.91-36-98C515.39,402.49,552.9,388.17,588.91,411.25Z"/><path class="cls-2" d="M485,445.5c20.77,31.9,35.57,41.22,50,66.78s-10.57,78.55-77.57,78.55-76-45.33-76-72.67,0-63.33,7-97.33S466.53,417.16,485,445.5Z"/><path class="cls-2" d="M151.25,144.39c32-33.78,132.29-89.27,226.78-88.55,88.43.67,171.22,55.34,203.56,88.55,66.89,68.72,93.49,179,37.27,240.64-33.08,36.25-159.62,69.3-244.58,69.3s-172.42-22.63-223-65.21S85.66,213.7,151.25,144.39Z"/><ellipse cx="381.5" cy="367.33" rx="27.27" ry="21.5"/><path class="cls-3" d="M556.57,119.23c5.23-12.33,18.91-10.66,23.09-14.17s6.27-17.53,10.45-15.19,29.27,15.19,33.45,25.71,3.05,11.19-2.18,14.69-25.24,5.37-29.35,13.2-16.65,7.83-29.19-5S556.57,119.23,556.57,119.23Z"/><path class="cls-3" d="M130.5,151.83c55,22.74,133,61,247.89,61,134.11,0,182.11-39.73,223.11-56l-53-50c-41,16.27-113,27.75-171.11,27.75s-134.89-9-189.89-31.75Z"/><path d="M473.85,156.3c.52.8,1.2,1.76,2,2.87l8.18-1.67.2-.05a2.27,2.27,0,0,1,2.15.65,2.93,2.93,0,0,1,.78,1.76c.22,1.74-.48,2.79-2.09,3.12l-4.89,1a53.62,53.62,0,0,0,7.83,6.43c1.07.73,1.64,1.36,1.71,1.88s-.34,1.05-1.21,1.45a12.69,12.69,0,0,1-3.67,1.14,2.9,2.9,0,0,1-2.1-.51q-3.61-2.55-8.68-9.28l-9.54,1.9a38.26,38.26,0,0,1-6.91,10.43,5.29,5.29,0,0,1-2.67,1.8,2.59,2.59,0,0,1-1.91-.67l1.54,12.32c.38,3.07-.77,4.76-3.44,5.1a11.42,11.42,0,0,1-5.84-1.34c-1.31-.61-2-1.38-2.15-2.33a2.07,2.07,0,0,1,.14-1,1.7,1.7,0,0,1,1.45-1.19,3.51,3.51,0,0,1,1,.06,5.77,5.77,0,0,0,1.54,0c.74-.09,1-.69.9-1.79l-1.5-12-4.83,1.22a55.36,55.36,0,0,1-1.7,16.75c-.46,1.51-1.24,2.34-2.34,2.47a3.12,3.12,0,0,1-1.48-.2,2.3,2.3,0,0,1-1.55-2,9.5,9.5,0,0,1,.25-2.3q1.81-9.74-1.14-33.55c-.14-1.1-.32-2.44-.56-4-.55-3.49-.85-5.4-.89-5.71q-.4-3.29,2.7-3.67a3,3,0,0,1,2.78.93l5.24-1.54a8.49,8.49,0,0,1,1.49-.34q4.09-.51,4.7,4.32l3.34,26.83a16.19,16.19,0,0,1,1-1.43,46.27,46.27,0,0,0,3.63-5.65l-2.48.49a2.34,2.34,0,0,1-2.28-.6,3.2,3.2,0,0,1-.86-1.93,2.33,2.33,0,0,1,2.11-2.89l6.05-1.26c.2-.71.42-1.58.65-2.62l.2-.76-5,1-.2,0a2.15,2.15,0,0,1-2-.7,2.9,2.9,0,0,1-.7-1.65,2.33,2.33,0,0,1,2-2.94l6.79-1.4a73.07,73.07,0,0,0,.5-10.28q-.07-3.21,2.77-3.56a4.28,4.28,0,0,1,2,.22,2.71,2.71,0,0,1,2,2.44q.29,2.23-.55,9.81l10.48-2.16a3.71,3.71,0,0,1,1,0,2.25,2.25,0,0,1,1.93,2.24,2.35,2.35,0,0,1-2,2.93ZM444.39,158l-.74-5.9c-.07-.64-.39-.93-.93-.86a1,1,0,0,0-.26.06l-3.37.89.1.82.12,1,.23,1.56L440,159Zm1.6,12.85-.89-7.15-4.32,1.07.23,1.92c.17,1.3.35,3.06.55,5.3Zm25.15,7.76a29.2,29.2,0,0,1-8.81,15.06,4.29,4.29,0,0,1-2.24,1.23A2.45,2.45,0,0,1,458,194a2.21,2.21,0,0,1-.67-1.36,3,3,0,0,1,1-2.4,25.18,25.18,0,0,0,5.8-10.05l-2.53.58-.34.07a2.25,2.25,0,0,1-1.87-.56,2.71,2.71,0,0,1-.84-1.79c-.22-1.72.46-2.75,2-3.09l4.69-1c.08-1.08.14-2.11.17-3.09a3.12,3.12,0,0,1,3-3.36,3.69,3.69,0,0,1,2.17.35,2.71,2.71,0,0,1,1.49,2.29,13.94,13.94,0,0,1,0,2.28l3.74-.82,1.1-.17c2.93-.36,4.59,1.09,5,4.34a35,35,0,0,1-.68,11.36,10.49,10.49,0,0,1-1.86,4.72,4.6,4.6,0,0,1-3,1.47q-2.5.3-6.34-1.6c-1.39-.7-2.13-1.46-2.24-2.29a2.24,2.24,0,0,1,.12-.94,1.7,1.7,0,0,1,1.45-1.18,3.45,3.45,0,0,1,1.16.09,7.77,7.77,0,0,0,2.45.17c.81-.1,1.39-.75,1.73-2a22,22,0,0,0,.64-4.33,14.49,14.49,0,0,0,0-2.66c-.12-.93-.54-1.33-1.25-1.2a1.41,1.41,0,0,0-.28.07Zm-17.72-34.64c.91-.11,2.06.42,3.44,1.58,2.11,1.77,3.26,3.4,3.45,4.92a2.71,2.71,0,0,1-1.24,2.63,3.77,3.77,0,0,1-1.77.72c-1.35.17-2.34-.58-3-2.26a19.43,19.43,0,0,0-2.18-4,3.45,3.45,0,0,1-.59-1.47,1.59,1.59,0,0,1,.42-1.38A2.45,2.45,0,0,1,453.42,143.93Zm15.41,13.26-1.35.28c-.27,1.36-.55,2.58-.84,3.68l4.12-.81C470.39,159.76,469.74,158.71,468.83,157.19Zm7.41-17.49a3.84,3.84,0,0,1,2.05.31,2.93,2.93,0,0,1,2,2.38q.21,1.71-2.31,4.92c-1.58,2-2.86,3.07-3.82,3.19a2.59,2.59,0,0,1-1.46-.29,1.93,1.93,0,0,1-1.14-1.57,3.2,3.2,0,0,1,.36-1.61,28.65,28.65,0,0,0,1.76-4.88A2.89,2.89,0,0,1,476.24,139.7Z"/><path d="M283.35,162a2.35,2.35,0,0,1,2.16,1.47c.33.82.37,2.66.1,5.54q-.56,6-2,8.79a3.64,3.64,0,0,1-3.71,2.3,5,5,0,0,1-1.75-.52,3.23,3.23,0,0,1-1.95-3.39,7.29,7.29,0,0,1,1-2.46,37.63,37.63,0,0,0,3.4-9.28C281,162.73,281.91,161.91,283.35,162Zm19.95,15.43a28.69,28.69,0,0,0,9.86,6.63,12.47,12.47,0,0,0,3.15.91q1.05.09,1.14-.87a33.75,33.75,0,0,0-.67-5.09,5.87,5.87,0,0,1-.12-1.57c.11-1.23.84-1.78,2.18-1.65a2.56,2.56,0,0,1,1.87,1.41,33.76,33.76,0,0,1,3.5,7.65,9.48,9.48,0,0,1,.48,3.66,4.3,4.3,0,0,1-1.78,3.28,6.61,6.61,0,0,1-4.65.95,27.78,27.78,0,0,1-7.86-2.12,30.59,30.59,0,0,1-12-8.65,77,77,0,0,1-14,9.26,3.94,3.94,0,0,1-2.08.52,2.24,2.24,0,0,1-1.9-1.36,3,3,0,0,1-.38-1.62,2.48,2.48,0,0,1,1-1.74c.24-.17.89-.56,2-1.17a64.65,64.65,0,0,0,11.62-9.15,48,48,0,0,1-5.2-13.4,22.41,22.41,0,0,1-.82-5.38,2.37,2.37,0,0,1,1.71-2.19,3.56,3.56,0,0,1,1.48-.19,2.27,2.27,0,0,1,2,1.39,12.61,12.61,0,0,1,.59,2.24,44,44,0,0,0,4.9,12.78q8.78-9.81,15.15-25.57,1.19-2.9,3.87-2.64a4,4,0,0,1,2.21.88,3.15,3.15,0,0,1,1.08,2.93,25.36,25.36,0,0,1-2.26,6,94.14,94.14,0,0,1-11.54,18.72q-2.17,2.75-4.19,4.85Zm-5.46-34.17c1,.09,1.73.83,2.29,2.21a16.06,16.06,0,0,0,2.46,4.26c.37.45.67.68.9.71s.94-.36,1.82-1.16a1.89,1.89,0,0,1,1.46-.54,1.47,1.47,0,0,1,1.47,1.84,10.12,10.12,0,0,1-2.43,5q-1.94,2.44-3.95,2.25-2.34-.21-4.2-3.54a18.36,18.36,0,0,1-2.32-8,6.83,6.83,0,0,1,0-1A2,2,0,0,1,297.84,143.3ZM320,160.11q1.79.16,6.2,5.14c2.77,3.1,4.08,5.55,3.91,7.34a3.54,3.54,0,0,1-1.54,2.62,4,4,0,0,1-2.81.74,3.59,3.59,0,0,1-3.19-2.65,56,56,0,0,0-4.44-8.86,3.73,3.73,0,0,1-.65-2.18,2.34,2.34,0,0,1,2.52-2.15Z"/><circle class="cls-4" cx="379" cy="173.33" r="35.5"/><path class="cls-5" d="M582,108.33c13,2,20,18,20,23"/><path d="M582,108.18a13.57,13.57,0,0,1,8.62,1.33,19.81,19.81,0,0,1,6.87,5.56,24.06,24.06,0,0,1,4.12,7.63,20.36,20.36,0,0,1,.91,4.25,10.66,10.66,0,0,1-.39,4.38h-.3a15.05,15.05,0,0,0-.85-3.89,31.55,31.55,0,0,0-1.52-3.72,34.93,34.93,0,0,0-4.3-6.77,25.42,25.42,0,0,0-5.85-5.44,20.38,20.38,0,0,0-7.35-3Z"/><path class="cls-3" d="M592,89.61c8-34.28,48-51.28,66-54.28s76-18,94-33c0,0,8,15,17,16,0,0-30,34-104,31-45-1.82-53.58,53.5-53.58,53.5Z"/><path class="cls-3" d="M611,102.33c19.9-25,27-32,84-28s62,23,101-5l17,15s-21.49,26-51.24,24S687.19,83.44,658.1,88.89s-33.17,30.33-33.17,30.33Z"/><path class="cls-1" d="M445.5,284.77c16.87,30.69,38,38,61,37,26,.12,50.74-26.37,54-49.92"/><path d="M445.76,284.63a106.41,106.41,0,0,0,11.33,15.54,60.55,60.55,0,0,0,14.61,12,53.15,53.15,0,0,0,17.54,6.41,76.15,76.15,0,0,0,18.8.68A41.69,41.69,0,0,0,525.38,314a73.94,73.94,0,0,0,14.86-10.82,69.24,69.24,0,0,0,6.43-6.72,76.57,76.57,0,0,0,5.59-7.51,63.26,63.26,0,0,0,7.94-17.19.31.31,0,0,1,.6.08A45.87,45.87,0,0,1,555.94,291a62.14,62.14,0,0,1-5.07,8.67,69.06,69.06,0,0,1-6.42,7.78,56.05,56.05,0,0,1-16.4,11.84,49,49,0,0,1-19.79,4.77h-4.95c-1.63,0-3.31-.15-5-.21s-3.31-.34-5-.53-3.3-.52-4.92-.92a56.35,56.35,0,0,1-18.35-7.68,62.38,62.38,0,0,1-14.43-13.39,97.45,97.45,0,0,1-10.45-16.45.3.3,0,0,1,.52-.3Z"/><path class="cls-1" d="M311.5,284.77c-16.86,30.69-38,38-61,37-26,.12-50.74-26.37-54-49.92"/><path d="M311.76,284.92a97.45,97.45,0,0,1-10.45,16.45,62.38,62.38,0,0,1-14.43,13.39,56.35,56.35,0,0,1-18.35,7.68c-1.62.4-3.27.61-4.92.92s-3.3.4-5,.53-3.33.23-5,.21h-4.95A49,49,0,0,1,229,319.33a56.05,56.05,0,0,1-16.4-11.84,69.06,69.06,0,0,1-6.42-7.78,62.14,62.14,0,0,1-5.07-8.67,46,46,0,0,1-4.86-19.17.31.31,0,0,1,.3-.3.31.31,0,0,1,.3.22A63.26,63.26,0,0,0,204.74,289a76.57,76.57,0,0,0,5.59,7.51,69.24,69.24,0,0,0,6.43,6.72A73.94,73.94,0,0,0,231.62,314,41.69,41.69,0,0,0,249,319.3a76.15,76.15,0,0,0,18.8-.68,53.15,53.15,0,0,0,17.54-6.41,60.55,60.55,0,0,0,14.61-12,105.67,105.67,0,0,0,11.33-15.54h0a.29.29,0,0,1,.41-.1A.29.29,0,0,1,311.76,284.92Z"/></g></g></svg>